name Walk6.mot
datacolumns 19
datarows 22
range 4.39300000 4.41400000
endheader

                time	   L_ground_force_vx	   L_ground_force_vy	   L_ground_force_vz	   L_ground_force_px	   L_ground_force_py	   L_ground_force_pz	   R_ground_force_vx	   R_ground_force_vy	   R_ground_force_vz	   R_ground_force_px	   R_ground_force_py	   R_ground_force_pz	   L_ground_torque_x	   L_ground_torque_y	   L_ground_torque_z	   R_ground_torque_x	   R_ground_torque_y	   R_ground_torque_z	
          4.39300000	          0.00000000	          0.00000000	          0.00000000	          0.00000000	          0.00000000	          0.00000000	         -3.93326209	        874.29347177	        -74.30009988	          0.16742095	          0.00000000	          0.11757058	          0.00000000	          0.00000000	          0.00000000	          0.00000000	         12.26664702	          0.00000000	
          4.39400000	          0.00000000	          0.00000000	          0.00000000	          0.00000000	          0.00000000	          0.00000000	         -3.69814856	        874.07531115	        -73.96273037	          0.16761381	          0.00000000	          0.11757475	          0.00000000	          0.00000000	          0.00000000	          0.00000000	         12.18608973	          0.00000000	
          4.39500000	          0.00000000	          0.00000000	          0.00000000	          0.00000000	          0.00000000	          0.00000000	         -3.43465184	        873.78650220	        -73.63333278	          0.16777117	          0.00000000	          0.11751187	          0.00000000	          0.00000000	          0.00000000	          0.00000000	         12.12646516	          0.00000000	
          4.39600000	          0.00000000	          0.00000000	          0.00000000	          0.00000000	          0.00000000	          0.00000000	         -3.14312804	        873.51945801	        -73.33124683	          0.16794790	          0.00000000	          0.11741511	          0.00000000	          0.00000000	          0.00000000	          0.00000000	         12.07967685	          0.00000000	
          4.39700000	          0.00000000	          0.00000000	          0.00000000	          0.00000000	          0.00000000	          0.00000000	         -2.83323327	        873.34008593	        -73.05839248	          0.16817929	          0.00000000	          0.11732329	          0.00000000	          0.00000000	          0.00000000	          0.00000000	         12.03131793	          0.00000000	
          4.39800000	          0.00000000	          0.00000000	          0.00000000	          0.00000000	          0.00000000	          0.00000000	         -2.51872652	        873.25063648	        -72.79159044	          0.16845291	          0.00000000	          0.11726702	          0.00000000	          0.00000000	          0.00000000	          0.00000000	         11.97053804	          0.00000000	
          4.39900000	          0.00000000	          0.00000000	          0.00000000	          0.00000000	          0.00000000	          0.00000000	         -2.20783796	        873.20109367	        -72.49844921	          0.16871912	          0.00000000	          0.11725477	          0.00000000	          0.00000000	          0.00000000	          0.00000000	         11.89470273	          0.00000000	
          4.40000000	          0.00000000	          0.00000000	          0.00000000	          0.00000000	          0.00000000	          0.00000000	         -1.89722341	        873.13202096	        -72.16030987	          0.16892270	          0.00000000	          0.11726640	          0.00000000	          0.00000000	          0.00000000	          0.00000000	         11.80942526	          0.00000000	
          4.40100000	          0.00000000	          0.00000000	          0.00000000	          0.00000000	          0.00000000	          0.00000000	         -1.58229806	        873.02688832	        -71.78080012	          0.16904453	          0.00000000	          0.11727541	          0.00000000	          0.00000000	          0.00000000	          0.00000000	         11.72375934	          0.00000000	
          4.40200000	          0.00000000	          0.00000000	          0.00000000	          0.00000000	          0.00000000	          0.00000000	         -1.26900236	        872.92135766	        -71.37842090	          0.16912722	          0.00000000	          0.11727540	          0.00000000	          0.00000000	          0.00000000	          0.00000000	         11.64244059	          0.00000000	
          4.40300000	          0.00000000	          0.00000000	          0.00000000	          0.00000000	          0.00000000	          0.00000000	         -0.96848936	        872.86900658	        -70.97277740	          0.16924506	          0.00000000	          0.11727719	          0.00000000	          0.00000000	          0.00000000	          0.00000000	         11.56406355	          0.00000000	
          4.40400000	          0.00000000	          0.00000000	          0.00000000	          0.00000000	          0.00000000	          0.00000000	         -0.68420907	        872.90902690	        -70.57748849	          0.16944172	          0.00000000	          0.11728847	          0.00000000	          0.00000000	          0.00000000	          0.00000000	         11.48763504	          0.00000000	
          4.40500000	          0.00000000	          0.00000000	          0.00000000	          0.00000000	          0.00000000	          0.00000000	         -0.40792997	        873.05718562	        -70.20425478	          0.16970899	          0.00000000	          0.11730703	          0.00000000	          0.00000000	          0.00000000	          0.00000000	         11.41615475	          0.00000000	
          4.40600000	          0.00000000	          0.00000000	          0.00000000	          0.00000000	          0.00000000	          0.00000000	         -0.12901029	        873.31916155	        -69.86755459	          0.17001611	          0.00000000	          0.11732748	          0.00000000	          0.00000000	          0.00000000	          0.00000000	         11.35182733	          0.00000000	
          4.40700000	          0.00000000	          0.00000000	          0.00000000	          0.00000000	          0.00000000	          0.00000000	          0.15570114	        873.69441361	        -69.57469323	          0.17033838	          0.00000000	          0.11734172	          0.00000000	          0.00000000	          0.00000000	          0.00000000	         11.29296795	          0.00000000	
          4.40800000	          0.00000000	          0.00000000	          0.00000000	          0.00000000	          0.00000000	          0.00000000	          0.44495615	        874.15878249	        -69.31095573	          0.17065803	          0.00000000	          0.11734107	          0.00000000	          0.00000000	          0.00000000	          0.00000000	         11.23722584	          0.00000000	
          4.40900000	          0.00000000	          0.00000000	          0.00000000	          0.00000000	          0.00000000	          0.00000000	          0.74104962	        874.66667420	        -69.04684976	          0.17095345	          0.00000000	          0.11732904	          0.00000000	          0.00000000	          0.00000000	          0.00000000	         11.18483097	          0.00000000	
          4.41000000	          0.00000000	          0.00000000	          0.00000000	          0.00000000	          0.00000000	          0.00000000	          1.05024943	        875.16207713	        -68.76345383	          0.17119824	          0.00000000	          0.11732042	          0.00000000	          0.00000000	          0.00000000	          0.00000000	         11.13795903	          0.00000000	
          4.41100000	          0.00000000	          0.00000000	          0.00000000	          0.00000000	          0.00000000	          0.00000000	          1.37572833	        875.57933362	        -68.46410076	          0.17137170	          0.00000000	          0.11732411	          0.00000000	          0.00000000	          0.00000000	          0.00000000	         11.09585194	          0.00000000	
          4.41200000	          0.00000000	          0.00000000	          0.00000000	          0.00000000	          0.00000000	          0.00000000	          1.70982845	        875.87571909	        -68.16236302	          0.17147262	          0.00000000	          0.11733975	          0.00000000	          0.00000000	          0.00000000	          0.00000000	         11.05196447	          0.00000000	
          4.41300000	          0.00000000	          0.00000000	          0.00000000	          0.00000000	          0.00000000	          0.00000000	          2.03720714	        876.08362171	        -67.86920701	          0.17153064	          0.00000000	          0.11736869	          0.00000000	          0.00000000	          0.00000000	          0.00000000	         11.00016296	          0.00000000	
          4.41400000	          0.00000000	          0.00000000	          0.00000000	          0.00000000	          0.00000000	          0.00000000	          2.34810921	        876.30159858	        -67.59131016	          0.17160168	          0.00000000	          0.11741542	          0.00000000	          0.00000000	          0.00000000	          0.00000000	         10.94060953	          0.00000000	
